<svg version="1.1" xmlns="http://www.w3.org/2000/svg" xmlns:xlink="http://www.w3.org/1999/xlink" width="113.501" height="54.672" viewBox="0,0,113.501,54.672"><defs><linearGradient x1="205.7504" y1="180.0002" x2="296.7504" y2="180.0002" gradientUnits="userSpaceOnUse" id="color-1"><stop offset="0" stop-color="#2994ff"/><stop offset="1" stop-color="#269dff"/></linearGradient></defs><g transform="translate(-183.2495,-152.664)"><g data-paper-data="{&quot;isPaintingLayer&quot;:true}" fill-rule="nonzero" stroke="none" stroke-width="1" stroke-linejoin="miter" stroke-miterlimit="10" stroke-dasharray="" stroke-dashoffset="0" style="mix-blend-mode: normal"><path d="M296.7505,198.731c0,4.752 -3.854,8.605 -8.605,8.605h-96.292c-4.752,0 -8.604,-3.854 -8.604,-8.605v-37.463c0,-4.752 3.852,-8.604 8.604,-8.604h96.291c4.754,0 8.605,3.852 8.605,8.604v37.463z" fill="url(#color-1)" stroke-linecap="butt"/><path d="M193.66161,168.93601h4.96068v9.23021h9.94365v-9.23021h4.96068v21.97191h-4.96068v-8.76201h-9.94365v8.76201h-4.96068zM225.90254,173.89669c1.79848,0 3.37772,0.35672 4.73773,1.07017c1.36001,0.70602 2.41531,1.70558 3.16592,2.9987c0.75804,1.28569 1.13705,2.78318 1.13705,4.49248c0,1.71673 -0.37902,3.22537 -1.13705,4.52592c-0.75061,1.30055 -1.80591,2.30755 -3.16592,3.021c-1.36001,0.70602 -2.93925,1.05902 -4.73773,1.05902c-1.80591,0 -3.39259,-0.35301 -4.76002,-1.05902c-1.36744,-0.71345 -2.43018,-1.72045 -3.18821,-3.021c-0.75061,-1.30055 -1.12591,-2.80919 -1.12591,-4.52592c0,-1.7093 0.3753,-3.20679 1.12591,-4.49248c0.75804,-1.29312 1.82077,-2.29269 3.18821,-2.9987c1.36744,-0.71345 2.95411,-1.07017 4.76002,-1.07017zM225.90254,177.75376c-0.83979,0 -1.57924,0.20066 -2.21837,0.60197c-0.63913,0.39388 -1.13705,0.95126 -1.49378,1.67214c-0.34929,0.72088 -0.52394,1.55323 -0.52394,2.49706c0,0.94383 0.17464,1.77618 0.52394,2.49706c0.35672,0.72088 0.85465,1.28569 1.49378,1.69443c0.63913,0.40874 1.37858,0.61312 2.21837,0.61312c0.83235,0 1.56066,-0.20437 2.18493,-0.61312c0.6317,-0.40874 1.12591,-0.97356 1.48263,-1.69443c0.35672,-0.72088 0.53508,-1.55323 0.53508,-2.49706c0,-0.94383 -0.17836,-1.77618 -0.53508,-2.49706c-0.35672,-0.72088 -0.85093,-1.27826 -1.48263,-1.67214c-0.62427,-0.40131 -1.35258,-0.60197 -2.18493,-0.60197zM249.97603,181.67771c0,-1.10733 -0.28984,-1.98055 -0.86951,-2.61968c-0.57224,-0.63913 -1.36001,-0.95869 -2.36329,-0.95869c-1.17421,0.04459 -2.09575,0.48678 -2.7646,1.32656c-0.66886,0.83235 -1.00328,1.88766 -1.00328,3.16592h-1.22624c0,-1.96941 0.28241,-3.59696 0.84722,-4.88265c0.56481,-1.28569 1.36372,-2.2481 2.39673,-2.88723c1.04044,-0.63913 2.27411,-0.95869 3.701,-0.95869c1.25596,0 2.33728,0.26754 3.24395,0.80263c0.9141,0.53508 1.6164,1.28569 2.1069,2.25181c0.49049,0.95869 0.73574,2.09575 0.73574,3.41116v10.57907h-4.80461zM261.78134,181.67771c0,-1.10733 -0.29355,-1.98055 -0.88066,-2.61968c-0.58711,-0.63913 -1.3823,-0.95869 -2.38559,-0.95869c-1.15192,0.04459 -2.0623,0.48678 -2.73116,1.32656c-0.66886,0.83235 -1.00328,1.88766 -1.00328,3.16592h-1.22624c0,-1.96941 0.28241,-3.59696 0.84722,-4.88265c0.56481,-1.28569 1.36372,-2.2481 2.39673,-2.88723c1.04044,-0.63913 2.27039,-0.95869 3.68985,-0.95869c1.25596,0 2.33728,0.26754 3.24395,0.80263c0.9141,0.53508 1.6164,1.28569 2.1069,2.25181c0.49792,0.95869 0.74689,2.09575 0.74689,3.41116v10.57907h-4.80461zM238.13729,174.05276h4.83806v16.85516h-4.83806zM281.77812,181.10919c-0.0223,-0.7729 -0.18579,-1.43432 -0.49049,-1.98427c-0.3047,-0.55738 -0.73946,-0.99214 -1.30427,-1.30427c-0.56481,-0.31956 -1.21137,-0.47935 -1.93968,-0.47935c-0.81749,0 -1.53094,0.2118 -2.14034,0.63541c-0.60197,0.41618 -1.07389,0.99214 -1.41574,1.72788c-0.33443,0.72831 -0.50164,1.57553 -0.50164,2.54165c0,1.08503 0.18951,2.01771 0.56853,2.79805c0.37902,0.7729 0.9141,1.36744 1.60525,1.78362c0.69115,0.41618 1.48635,0.62427 2.38559,0.62427c1.62755,0 3.05072,-0.60569 4.26953,-1.81706l2.54165,2.50821c-0.83979,0.94383 -1.8728,1.66842 -3.09903,2.17378c-1.2188,0.49792 -2.59367,0.74689 -4.12461,0.74689c-1.79848,0 -3.35914,-0.35301 -4.68199,-1.05902c-1.31542,-0.71345 -2.33356,-1.71301 -3.05444,-2.9987c-0.72088,-1.29312 -1.08132,-2.7869 -1.08132,-4.48133c0,-1.73902 0.36415,-3.25138 1.09246,-4.53707c0.73574,-1.28569 1.7576,-2.28154 3.06559,-2.98756c1.30799,-0.71345 2.82034,-1.08132 4.53707,-1.10361c1.98427,0 3.6081,0.41246 4.8715,1.23738c1.27083,0.82492 2.19236,1.98799 2.7646,3.4892c0.57967,1.49378 0.7952,3.26625 0.64656,5.3174h-12.99809v-2.83149z" fill="#ffffff" stroke-linecap="square"/></g></g></svg>